<?xml version="1.0" encoding="UTF-8"?>
<!DOCTYPE svg PUBLIC "-//W3C//DTD SVG 1.1//EN" "http://www.w3.org/Graphics/SVG/1.1/DTD/svg11.dtd">
<!-- Creator: CorelDRAW -->
<svg xmlns="http://www.w3.org/2000/svg" xml:space="preserve" width="210mm" height="297mm" version="1.1" style="shape-rendering:geometricPrecision; text-rendering:geometricPrecision; image-rendering:optimizeQuality; fill-rule:evenodd; clip-rule:evenodd"
viewBox="0 0 21000 29700"
 xmlns:xlink="http://www.w3.org/1999/xlink"
 xmlns:xodm="http://www.corel.com/coreldraw/odm/2003">
 <defs>
  <style type="text/css">
   <![CDATA[
    .str0 {stroke:#333333;stroke-width:18;stroke-linejoin:bevel;stroke-miterlimit:22.9256}
    .fil0 {fill:none}
   ]]>
  </style>
 </defs>
 <g id="Layer_x0020_1">
  <metadata id="CorelCorpID_0Corel-Layer"/>
  <g id="scarlet_x0020_witch_x0020_logo_x0020_--scarlet_x0020_witch_x0020_-avengers-marvel-movies-superhero-movies.dxf">
   <path class="fil0 str0" d="M10500.63 10987.36c2154.28,0 3900.59,1729.47 3900.59,3862.8 0,0 0,0 0,0 0,2133.33 -1746.31,3862.8 -3900.59,3862.8 0,0 0,0 0,0 -2154.28,0 -3900.59,-1729.47 -3900.59,-3862.8 0,0 0,0 0,0 0,-2133.33 1746.31,-3862.8 3900.59,-3862.8z"/>
   <path class="fil0 str0" d="M10500.63 11442.72c1398.16,0 2601.57,835.06 3139.82,2034.26 0,0 0,0 0,0 0,0 -539.11,6.02 -539.11,6.02 0,0 0,0 0,0 -110.75,-306.1 -260.61,-611.34 -448.4,-912.45 0,0 0,0 0,0 -133.44,618.82 -388.64,985.36 -855.52,1385.27 0,0 0,0 0,0 -382.02,326.9 -810.99,759.39 -1286.9,1297.04 0,0 0,0 0,0 -466.89,-458.54 -914.85,-903.16 -1343.65,-1333.42 0,0 0,0 0,0 -498.95,-501.62 -693.19,-556.9 -864.98,-1349.23 0,0 0,0 0,0 -214.27,322.61 -378.32,646.67 -492.08,972.29 0,0 0,0 0,0 0,0 -479.87,5.41 -479.87,5.41 0,0 0,0 0,0 522.18,-1236.94 1745.19,-2105.19 3170.69,-2105.19z"/>
   <path class="fil0 str0" d="M7708.78 13885.05c-292.42,1215.53 110.66,2452.13 1209.52,3709.28 0,0 0,0 0,0 -267.32,-900.15 -387.44,-1886.02 -360.27,-2957.53 0,0 0,0 0,0 690.44,91.65 1328.77,483.47 1914.83,1175.46 0,0 0,0 0,0 583.39,-634.55 1240.55,-1032.65 1971.57,-1194.38 0,0 0,0 0,0 -31.47,956.64 -183.05,1936.15 -454.93,2938.53 0,0 0,0 0,0 1191.29,-1081.83 1572.62,-2407.25 1218.8,-3733.09 0,0 0,0 0,0 0,0 563.53,-6.37 563.53,-6.37 0,0 0,0 0,0 110.06,337.14 169.56,697.32 169.56,1071.34 0,0 0,0 0,0 0,1857.74 -1468.07,3372.23 -3305.77,3443.17 0,0 0,0 0,0 0,0 0,-351.41 0,-351.41 0,0 0,0 0,0 250.56,-47.38 509.62,-228.29 776.94,-542.64 0,0 0,0 0,0 -184.95,-117.97 -352.53,-278.06 -524.75,-339.54 0,0 0,0 0,0 -183.14,-65 -219.69,14.44 -365.86,13.76 0,0 0,0 0,0 -162.16,-0.95 -252.53,-125.54 -414.78,-15.14 0,0 0,0 0,0 -147.28,100.17 -310.99,191.92 -490.87,274.54 0,0 0,0 0,0 252.1,369.64 514.52,574.45 787.08,614.43 0,0 0,0 0,0 0,0 0,347.2 0,347.2 0,0 0,0 0,0 -1855.24,-51.5 -3343.51,-1573.91 -3343.51,-3444.37 0,0 0,0 0,0 0,-346.85 51.25,-681.84 146.43,-997.56 0,0 0,0 0,0 0,0 502.48,-5.68 502.48,-5.68z"/>
   <path class="fil0 str0" d="M10583.26 17435.01c83.14,-71.2 219.86,-48.33 409.96,68.7 0,0 0,0 0,0 -350.2,172.22 -688.29,170.67 -1014.24,-4.73 0,0 0,0 0,0 140.15,-116.42 274.45,-136.97 402.82,-61.65 0,0 0,0 0,0 57.87,41.96 125.02,41.18 201.46,-2.32z"/>
  </g>
 </g>
</svg>
