<?xml version="1.0" standalone="no"?>
<!DOCTYPE svg PUBLIC "-//W3C//DTD SVG 20010904//EN"
 "http://www.w3.org/TR/2001/REC-SVG-20010904/DTD/svg10.dtd">
<svg version="1.0" xmlns="http://www.w3.org/2000/svg"
 width="822.000000pt" height="988.000000pt" viewBox="0 0 822.000000 988.000000"
 preserveAspectRatio="xMidYMid meet">

<g transform="translate(0.000000,988.000000) scale(0.100000,-0.100000)"
fill="#000000" stroke="none">
<path d="M4410 9670 c14 -11 37 -32 53 -45 15 -14 32 -25 38 -25 5 0 4 -6 -3
-14 -11 -13 -15 -13 -25 2 -10 12 -13 12 -13 2 0 -11 -3 -10 -12 2 -7 9 -39
25 -71 37 -53 19 -60 20 -87 6 -25 -13 -30 -22 -30 -51 0 -20 -4 -33 -10 -29
-5 3 -7 11 -4 18 3 8 -8 12 -36 12 -23 0 -40 -5 -40 -11 0 -7 -16 -12 -37 -12
-21 0 -31 3 -23 6 15 5 113 52 163 78 15 8 27 19 27 25 0 18 -51 9 -108 -19
-100 -50 -160 -68 -182 -54 -11 7 -22 12 -25 12 -8 0 6 -53 18 -68 5 -7 7 -16
3 -19 -4 -4 -10 -2 -15 5 -5 9 -13 7 -29 -8 -12 -11 -24 -20 -27 -20 -21 1
-25 -2 -25 -14 0 -8 -3 -16 -8 -18 -10 -4 -82 -104 -82 -114 0 -4 -6 -15 -14
-23 -14 -16 -86 -156 -142 -276 -15 -33 -29 -54 -31 -48 -4 11 104 260 140
323 11 19 29 53 40 75 11 22 30 54 43 72 13 17 24 36 24 42 0 6 4 11 10 11 5
0 17 14 25 31 16 29 16 30 -4 20 -11 -6 -28 -22 -38 -35 -10 -13 -39 -36 -65
-52 -87 -55 -229 -205 -227 -242 0 -15 2 -14 12 3 25 41 137 141 137 122 0 -3
-24 -29 -54 -58 -82 -82 -144 -209 -102 -209 9 0 3 -22 -22 -75 -38 -79 -52
-93 -29 -29 8 22 19 68 26 104 6 36 13 79 17 95 9 43 -9 20 -28 -35 -8 -25
-23 -72 -33 -105 -25 -83 -59 -178 -91 -255 -37 -90 -125 -342 -120 -347 10
-11 28 29 96 222 31 85 60 149 66 143 2 -2 -8 -37 -21 -77 -28 -82 -30 -95
-13 -85 7 4 2 -6 -10 -23 -12 -17 -22 -36 -22 -42 0 -6 -4 -11 -9 -11 -5 0
-12 -7 -15 -16 -4 -12 -1 -14 14 -9 20 6 20 6 -1 -32 -74 -128 -129 -274 -129
-339 0 -51 33 -137 79 -204 52 -76 53 -96 1 -40 -41 44 -48 43 -29 -6 19 -51
40 -237 40 -349 -1 -60 2 -138 5 -173 7 -76 1 -103 -25 -119 -18 -12 -19 -10
-14 22 8 47 -2 44 -26 -8 -26 -57 -107 -137 -178 -175 -69 -37 -73 -36 148
-22 146 9 179 15 179 30 0 10 -58 40 -77 40 -7 0 -13 4 -13 8 0 13 -59 5 -85
-12 -27 -18 -70 -22 -60 -6 3 6 15 10 26 10 10 0 19 3 19 8 0 4 17 16 38 27
20 11 39 23 42 26 3 4 23 15 45 26 22 10 50 25 61 33 19 12 25 10 52 -8 16
-12 34 -22 39 -22 5 0 17 -13 26 -30 10 -16 15 -30 11 -30 -3 0 0 -10 8 -22
20 -31 30 -87 33 -186 3 -96 17 -137 54 -157 24 -13 19 -14 -57 -9 -45 2 -95
10 -110 15 -42 17 -200 39 -277 39 -82 0 -244 -32 -279 -56 -14 -8 -31 -12
-37 -8 -7 4 -9 3 -6 -3 10 -16 -38 -36 -71 -28 -31 6 -52 -8 -30 -21 7 -5 -6
-12 -33 -18 -24 -6 -46 -8 -49 -4 -8 11 -50 -20 -50 -37 0 -8 -5 -17 -11 -21
-8 -4 -9 4 -5 27 l7 34 -16 -27 c-26 -46 -77 -210 -72 -234 2 -13 1 -21 -4
-19 -8 6 -21 -35 -64 -200 -30 -115 -69 -225 -97 -275 -11 -19 -22 -48 -24
-64 -2 -16 -10 -38 -17 -50 -18 -26 -47 -152 -47 -200 0 -40 -17 -58 -22 -24
-2 13 -8 -6 -12 -42 -4 -36 -17 -99 -28 -140 -33 -125 -32 -121 -14 -114 18 7
20 1 6 -24 -12 -21 -35 -103 -33 -119 0 -7 -4 -11 -9 -10 -6 1 -12 -11 -13
-26 -2 -16 -9 -35 -16 -43 -6 -7 -9 -20 -6 -28 3 -8 -5 -30 -18 -49 -12 -19
-26 -46 -29 -58 -7 -23 -6 -23 5 -4 7 11 15 22 19 25 3 3 10 14 13 24 4 10 10
17 12 14 3 -2 -7 -35 -21 -74 -15 -38 -33 -87 -41 -109 -8 -22 -12 -53 -9 -70
4 -22 3 -26 -4 -15 -8 11 -10 5 -10 -25 0 -22 0 -110 0 -197 -1 -137 -3 -157
-18 -163 -9 -3 -19 -6 -21 -5 -2 1 -9 -8 -15 -18 -19 -33 -129 -166 -154 -186
-13 -10 -21 -20 -19 -23 3 -2 36 19 73 47 91 68 112 78 154 69 19 -3 30 -7 23
-8 -6 0 -14 -23 -18 -51 -5 -36 -12 -51 -26 -55 -10 -4 -19 -11 -19 -16 0 -6
9 -7 20 -4 23 7 28 -13 5 -21 -13 -5 -12 -9 5 -24 13 -11 17 -21 10 -25 -5 -3
-10 -1 -10 4 0 6 -7 11 -15 11 -8 0 -15 -4 -15 -9 0 -5 -17 -16 -37 -25 -54
-23 -194 -113 -201 -129 -2 -4 -10 -3 -18 4 -12 9 -13 9 -9 -3 4 -10 -2 -17
-16 -21 -13 -4 -20 -9 -16 -13 7 -8 -30 -37 -51 -40 -24 -4 -63 -35 -74 -60
-6 -13 -15 -24 -20 -24 -4 0 -8 -4 -8 -10 0 -5 -8 -19 -17 -30 -12 -14 -20
-16 -30 -9 -9 8 -14 4 -19 -15 -3 -15 -17 -35 -30 -45 -13 -10 -24 -28 -24
-40 0 -19 6 -21 54 -21 46 0 54 -3 51 -18 -1 -9 -8 -16 -14 -15 -6 2 -11 -11
-11 -32 0 -20 -6 -37 -16 -43 -8 -5 -17 -17 -18 -28 -2 -10 -7 -19 -12 -20 -5
0 -37 -8 -71 -18 -56 -17 -64 -23 -92 -68 -17 -27 -28 -54 -25 -60 4 -6 2 -8
-3 -5 -6 4 -16 -6 -23 -22 -6 -16 -25 -44 -41 -62 -16 -18 -29 -38 -29 -44 0
-7 -11 -20 -24 -31 -14 -10 -23 -21 -20 -26 3 -4 0 -8 -5 -8 -6 0 -11 -7 -11
-15 0 -11 -14 -14 -66 -12 -49 1 -68 -2 -77 -14 -7 -8 -27 -24 -45 -34 -19
-12 -30 -25 -27 -33 3 -8 -3 -16 -15 -19 -11 -3 -20 -9 -20 -13 0 -4 -9 -17
-20 -30 -11 -13 -20 -18 -20 -12 0 7 -8 12 -17 12 -15 0 -16 -2 -3 -10 8 -5
11 -12 7 -16 -4 -4 -14 -1 -23 8 -14 14 -12 18 15 46 44 43 38 57 -10 25 -30
-20 -51 -26 -82 -24 l-41 2 37 -34 c20 -18 37 -37 37 -42 0 -5 -12 2 -26 16
-18 16 -28 20 -31 12 -3 -9 -11 -8 -29 4 -23 15 -24 14 -17 -3 6 -16 5 -17 -9
-6 -12 10 -17 10 -20 1 -3 -9 -10 -9 -27 1 -21 11 -23 10 -17 -5 5 -14 2 -16
-11 -10 -35 14 -186 24 -206 13 -11 -5 -57 -13 -103 -18 -102 -9 -124 -24
-124 -83 0 -22 6 -48 14 -56 13 -14 9 -27 -30 -105 -24 -48 -44 -98 -44 -109
1 -20 2 -21 14 -5 18 25 27 22 17 -5 -5 -13 -5 -46 1 -79 8 -48 15 -60 41 -77
22 -14 27 -21 15 -21 -31 0 -19 -19 14 -24 91 -14 157 -15 161 -3 3 9 8 9 21
-2 9 -8 38 -25 64 -37 40 -20 48 -30 20 -25 -14 2 -9 -27 7 -43 8 -8 15 -22
15 -31 0 -9 11 -27 24 -40 l24 -24 -30 -28 c-37 -34 -68 -94 -68 -128 0 -16
-6 -25 -15 -25 -8 0 -15 -7 -15 -15 0 -8 -4 -15 -10 -15 -5 0 -17 -14 -26 -31
-13 -26 -15 -48 -9 -123 4 -50 9 -140 10 -199 4 -124 8 -133 102 -193 58 -38
68 -41 59 -18 -3 8 -2 13 2 11 59 -28 82 -44 84 -60 3 -19 12 -25 103 -67 28
-13 81 -44 120 -69 38 -26 86 -56 105 -69 19 -12 47 -28 63 -34 15 -7 27 -19
27 -28 0 -13 1 -13 10 0 6 10 10 11 10 3 0 -7 9 -13 20 -13 11 0 20 -6 20 -13
0 -7 10 -13 22 -14 57 -1 64 -3 48 -13 -11 -7 -8 -9 15 -9 17 1 68 -9 114 -20
113 -29 350 -50 486 -44 219 10 275 9 284 -5 5 -8 10 -12 12 -11 2 2 14 -5 26
-16 16 -13 21 -26 17 -41 -4 -16 1 -28 15 -41 25 -20 27 -55 6 -73 -8 -7 -15
-18 -15 -25 0 -8 -4 -15 -8 -17 -19 -7 -72 -93 -72 -115 0 -35 17 -19 45 42
13 29 36 60 49 69 24 15 25 15 19 -1 -7 -19 -16 -32 -44 -62 -18 -20 -29 -65
-20 -78 16 -24 157 -70 219 -72 13 -1 21 -5 17 -11 -3 -5 -12 -7 -20 -3 -8 3
-15 0 -15 -6 0 -6 18 -11 43 -10 33 0 38 2 22 9 -14 7 -5 8 30 5 28 -2 51 -4
53 -4 1 -1 2 -8 2 -16 0 -17 18 -18 80 -4 67 15 304 91 310 99 3 4 16 11 28
15 13 4 43 19 65 35 23 15 62 38 87 51 25 13 48 28 51 32 3 5 25 11 48 14 22
3 41 10 41 15 0 6 32 7 81 2 52 -4 88 -3 102 4 12 6 67 29 122 50 55 22 116
48 136 58 20 11 52 28 73 38 20 11 35 25 32 31 -6 15 63 46 263 117 105 37 99
37 311 43 204 6 194 -9 -14 -20 -75 -4 -136 -10 -136 -14 0 -3 84 -6 188 -6
237 -1 481 -35 574 -81 98 -49 303 -204 314 -236 3 -11 8 -17 11 -14 3 3 14
-5 24 -18 19 -24 76 -53 85 -43 3 3 31 -7 63 -23 52 -26 127 -50 226 -71 22
-5 101 -12 175 -15 146 -7 222 2 293 35 l42 20 -35 -6 c-32 -6 -34 -5 -21 10
7 9 19 17 25 17 6 0 23 7 38 14 25 13 29 13 38 -2 9 -15 14 -13 43 19 37 43
121 94 137 84 6 -4 19 0 28 8 9 8 32 19 50 25 18 6 42 18 54 27 l22 15 -21 0
c-122 0 284 131 449 145 26 2 55 8 65 13 10 6 20 10 23 10 3 0 17 5 32 11 15
5 45 9 68 8 23 -1 44 4 48 10 4 6 20 15 35 18 15 4 27 10 27 15 0 4 10 12 23
18 l22 11 -24 0 c-24 1 -24 1 5 23 16 13 37 30 47 39 33 30 68 44 76 31 5 -9
12 -8 27 4 17 14 17 15 1 10 -11 -4 -16 -2 -12 5 4 5 16 7 27 4 14 -5 21 -1
24 12 5 20 60 47 75 37 5 -3 9 2 9 12 0 12 6 15 25 12 15 -3 22 -1 18 5 -4 6
2 8 15 5 15 -4 22 -2 22 7 0 8 5 17 12 21 8 5 9 2 5 -9 -3 -10 -2 -17 3 -17 6
0 10 7 10 15 0 8 9 15 20 15 11 0 20 4 20 9 0 5 14 12 30 16 17 4 30 11 30 16
0 5 6 9 14 9 7 0 22 12 32 26 10 14 24 31 30 38 18 20 72 140 89 200 19 68 23
364 5 411 -6 15 -14 45 -19 66 -8 35 -7 39 10 39 24 0 24 2 -7 68 -14 30 -23
63 -21 73 3 11 -1 23 -10 27 -12 7 -11 14 8 48 13 21 27 41 31 42 4 2 8 9 8
16 0 7 12 26 26 42 l25 29 -16 -39 c-15 -38 -15 -39 3 -23 10 9 27 17 36 17
10 0 20 9 23 20 5 17 7 18 27 5 20 -14 26 -12 64 16 23 17 46 28 52 24 29 -18
61 85 41 135 -8 21 -10 16 -12 -35 l-2 -60 -7 60 c-8 72 -40 195 -51 195 -4 0
-10 28 -14 63 -4 34 -13 72 -21 84 -13 20 -12 22 16 28 37 8 39 35 8 94 -23
44 -29 47 -59 31 -25 -14 -24 1 2 34 12 15 28 25 35 22 21 -8 17 2 -6 14 -16
9 -26 4 -58 -25 -31 -28 -48 -35 -79 -35 -22 0 -60 -7 -83 -15 -26 -9 -78 -15
-131 -15 -49 0 -89 -4 -89 -9 0 -10 168 -33 184 -25 6 3 -2 -6 -19 -21 -16
-14 -40 -38 -52 -51 -13 -14 -23 -20 -23 -15 0 6 9 20 21 32 11 11 19 22 17
23 -7 6 -123 26 -148 26 -15 0 -54 -14 -86 -31 -32 -18 -70 -35 -84 -39 -14
-5 -33 -11 -43 -15 -13 -6 -16 -3 -11 9 3 9 3 28 0 42 -7 26 -8 27 -77 22 -38
-3 -72 -2 -75 3 -2 4 21 9 53 11 35 2 56 7 53 13 -3 6 -32 9 -65 7 -41 -2 -55
0 -46 7 21 14 0 56 -39 79 l-30 19 22 10 23 11 -21 8 c-31 12 -194 165 -194
181 0 7 -4 13 -10 13 -5 0 -10 6 -10 14 0 22 -83 122 -88 107 -2 -7 0 -16 4
-20 5 -3 15 -18 21 -32 6 -14 47 -74 91 -132 44 -59 77 -109 72 -112 -10 -6
-80 60 -80 75 0 5 -7 10 -15 10 -8 0 -15 7 -15 15 0 8 -4 15 -8 15 -10 0 -32
39 -35 61 -3 18 -13 30 -87 110 -64 69 -99 131 -130 226 -26 84 -59 153 -71
153 -5 0 -7 11 -3 25 4 17 2 25 -7 25 -7 0 -9 3 -6 7 4 3 -4 21 -18 39 -14 18
-25 38 -25 44 0 6 -5 8 -11 4 -14 -9 -30 16 -23 37 2 10 -2 19 -11 23 -9 3
-13 11 -9 17 4 8 3 9 -5 5 -14 -9 -121 98 -121 121 0 9 -6 13 -15 9 -10 -4
-15 1 -15 15 0 24 -29 37 -42 18 -8 -12 -9 -12 -6 0 3 8 -4 31 -13 50 -11 22
-14 40 -8 46 14 14 10 54 -11 119 -11 33 -18 62 -15 64 3 3 1 10 -4 16 -15 18
-26 120 -12 112 6 -4 11 -15 11 -24 0 -23 38 -143 50 -157 5 -7 7 -15 3 -18
-3 -4 -1 -7 6 -7 9 0 11 6 6 18 -24 55 -35 96 -44 167 -10 77 -16 287 -10 350
2 17 0 62 -5 100 -7 65 -7 69 8 50 16 -19 16 -19 7 5 -22 63 -32 123 -21 134
8 8 9 6 4 -8 -5 -13 -4 -17 4 -12 6 4 8 20 5 40 -3 18 -1 36 5 40 11 7 -5 86
-18 86 -4 0 -8 18 -8 41 -1 49 -29 139 -44 139 -6 0 -9 2 -6 5 3 3 17 1 32 -5
15 -5 26 -7 24 -3 -2 5 -10 22 -17 40 -8 20 -21 33 -34 35 -16 2 -26 15 -35
43 -7 22 -18 43 -25 47 -7 4 -8 8 -4 8 4 0 3 9 -3 20 -15 27 4 25 24 -2 9 -14
6 1 -8 34 -44 104 -201 673 -216 783 -6 44 -17 103 -24 131 -15 57 -13 63 24
82 24 13 97 116 136 192 24 48 37 209 18 231 -8 8 -14 22 -14 30 0 8 -7 32
-14 54 -10 28 -11 42 -3 47 7 4 1 21 -17 47 -30 42 -30 52 -10 159 4 20 2 32
-5 32 -6 0 -11 -6 -11 -14 0 -36 -21 -22 -45 30 -28 60 -29 67 -27 133 2 43 2
44 22 26 11 -10 20 -23 20 -30 0 -6 7 -20 16 -31 15 -18 15 -18 9 11 -4 16
-17 52 -30 80 -19 43 -45 157 -49 220 0 11 -9 26 -18 33 -10 7 -18 21 -18 31
0 11 -7 22 -16 25 -13 5 -14 1 -9 -27 8 -37 8 -37 -62 53 -58 74 -93 109 -93
92 0 -7 4 -12 9 -12 5 0 11 -9 14 -19 6 -23 2 -22 -88 19 -33 15 -70 30 -83
34 -12 4 -20 12 -17 17 4 5 -1 9 -10 9 -11 0 -15 5 -11 16 5 12 1 14 -16 9
-18 -6 -20 -4 -15 14 5 19 2 21 -16 15 -18 -5 -20 -4 -9 7 16 17 16 37 0 21
-13 -13 -29 -16 -26 -4 5 17 -14 52 -28 52 -8 0 -12 5 -9 10 3 6 -1 10 -9 10
-9 0 -16 7 -16 16 0 8 -4 12 -10 9 -5 -3 -16 9 -25 27 -10 24 -13 26 -9 8 l6
-25 -17 23 c-9 13 -14 29 -11 37 3 9 -1 15 -9 15 -13 0 -16 7 -15 35 0 3 -7
19 -16 36 -22 43 -12 46 21 7 50 -60 130 -142 184 -188 64 -54 81 -65 81 -50
0 5 -4 10 -8 10 -19 0 -207 200 -255 271 -28 43 -56 78 -60 79 -4 0 -3 -9 3
-19 23 -44 7 -42 -39 4 -32 32 -46 52 -38 57 8 5 8 13 0 30 -6 13 -17 41 -26
63 -8 22 -26 67 -38 100 -13 33 -29 71 -36 85 -11 21 -11 25 2 28 12 3 10 10
-9 35 -14 18 -26 44 -28 58 -2 15 -16 43 -32 64 -21 27 -25 39 -16 45 9 5 9 9
1 14 -6 4 -11 2 -11 -5 0 -18 -27 8 -62 60 l-30 46 41 -44 c23 -25 41 -40 41
-34 0 22 -186 230 -196 220 -4 -4 16 -50 37 -90 19 -35 29 -68 19 -62 -6 3
-10 12 -10 18 0 7 -20 33 -44 59 -24 26 -41 50 -37 53 3 3 -2 3 -11 0 -9 -4
-19 -2 -23 4 -9 16 -33 13 -52 -7 -32 -32 -89 -116 -112 -167 -26 -58 -102
-175 -113 -175 -5 0 -8 -4 -8 -9 0 -12 -44 -61 -54 -61 -4 0 2 13 13 29 12 16
21 34 21 40 0 6 3 11 8 11 4 0 12 8 17 19 6 10 25 47 44 82 18 35 50 89 71
119 45 66 85 138 92 165 3 11 9 29 14 39 6 16 4 18 -16 13 -13 -3 -38 0 -54 8
-90 40 -130 55 -164 60 l-37 6 25 -21z m143 -87 c-7 -2 -19 -2 -25 0 -7 3 -2
5 12 5 14 0 19 -2 13 -5z m327 -153 c6 -11 9 -20 7 -20 -2 0 -12 9 -22 20 -10
11 -13 20 -7 20 6 0 16 -9 22 -20z m-1105 -30 c-3 -5 -11 -10 -16 -10 -6 0 -7
5 -4 10 3 6 11 10 16 10 6 0 7 -4 4 -10z m1146 -162 c11 -21 11 -22 -4 -9 -10
7 -17 17 -17 22 0 15 9 10 21 -13z m-833 -264 c48 -42 119 -108 158 -145 39
-38 77 -69 83 -69 27 0 101 59 101 81 0 6 7 8 16 5 8 -3 13 -2 10 3 -5 8 12
26 105 114 11 9 19 15 19 12 0 -3 15 10 34 30 19 19 40 35 48 34 17 0 50 -44
68 -89 8 -19 17 -37 21 -40 6 -5 14 -17 71 -120 32 -58 50 -110 37 -110 -5 0
-9 6 -9 14 0 7 -6 25 -13 39 l-14 26 -21 -22 -22 -21 -36 34 c-34 33 -36 34
-49 16 -11 -15 -32 -19 -107 -24 l-93 -5 -52 -54 c-58 -59 -68 -94 -32 -113
17 -9 25 -8 40 6 18 16 19 16 13 1 -3 -9 -4 -17 -1 -17 9 0 54 47 59 60 6 20
100 15 146 -9 48 -25 54 -41 14 -41 -15 0 -42 -4 -59 -9 -21 -6 -46 -6 -69 1
-28 7 -39 7 -45 -3 -4 -7 -5 -17 -3 -21 3 -4 -2 -8 -10 -8 -9 0 -16 -4 -16 -9
0 -17 20 -23 35 -11 9 8 25 8 52 1 21 -5 66 -13 101 -16 57 -6 66 -5 83 14 65
70 96 -56 42 -169 -15 -30 -38 -67 -51 -82 -33 -35 -82 -124 -82 -149 0 -11
-4 -28 -8 -37 -9 -18 10 -67 21 -55 4 3 2 12 -5 20 -9 11 -6 20 15 41 15 15
27 21 27 14 0 -6 -4 -12 -10 -12 -16 0 -12 -36 6 -51 13 -11 15 -11 14 2 -4
28 0 50 9 45 5 -4 11 -1 13 6 4 10 10 10 31 1 22 -10 27 -10 27 1 0 8 -5 16
-12 18 -9 3 -9 6 -1 11 8 5 15 -5 21 -27 12 -43 -6 -102 -39 -129 -13 -10 -40
-32 -59 -47 -121 -99 -284 -190 -338 -190 -44 0 -128 29 -240 84 -51 25 -96
46 -100 46 -15 0 -127 78 -154 106 -24 27 -46 69 -77 149 -9 24 -9 27 1 15 7
-8 21 -16 31 -16 27 -3 21 37 -22 133 -27 61 -41 110 -46 158 -4 39 -12 73
-19 77 -7 5 -5 8 7 8 14 0 17 10 18 60 2 102 17 188 36 212 6 7 16 37 22 66 7
35 24 70 52 105 65 83 103 127 112 127 5 0 48 -34 95 -76z m972 -104 c0 -5 -2
-10 -4 -10 -3 0 -8 5 -11 10 -3 6 -1 10 4 10 6 0 11 -4 11 -10z m-225 -199
c-7 -6 -35 27 -35 41 0 7 9 2 20 -12 10 -14 17 -26 15 -29z m-98 11 c-9 -2
-24 2 -34 8 -15 9 -15 10 6 4 18 -5 22 -3 15 7 -6 10 -3 10 11 -1 16 -13 16
-15 2 -18z m-167 8 c0 -13 -20 -13 -40 0 -12 8 -9 10 13 10 15 0 27 -4 27 -10z
m47 -6 c6 -15 7 -15 19 0 6 10 14 13 17 9 3 -5 -3 -14 -14 -21 -16 -10 -21
-10 -25 3 -3 8 -10 12 -15 9 -5 -3 -9 0 -9 5 0 17 20 13 27 -5z m-122 -22 c-3
-3 -11 0 -18 7 -9 10 -8 11 6 5 10 -3 15 -9 12 -12z m310 -22 c3 -5 -1 -10
-10 -10 -9 0 -13 5 -10 10 3 6 8 10 10 10 2 0 7 -4 10 -10z m84 -35 l0 -20 -9
20 c-5 11 -9 27 -9 35 -1 13 0 13 9 0 5 -8 9 -24 9 -35z m-1228 -315 c32 -59
70 -102 85 -96 7 3 15 -2 18 -10 4 -10 -3 -16 -24 -20 -33 -7 -47 -4 -42 10 2
6 -2 21 -9 34 -11 19 -19 23 -40 18 -23 -4 -31 0 -46 27 -41 70 -46 91 -29
132 l16 38 23 -44 c13 -24 34 -64 48 -89z m1301 38 c-7 -7 -12 -8 -12 -2 0 14
12 26 19 19 2 -3 -1 -11 -7 -17z m-20 -40 c-5 -22 -4 -22 15 -5 24 21 33 22
33 3 0 -8 -9 -17 -19 -21 -11 -3 -25 -12 -31 -21 -10 -12 -9 -18 5 -34 14 -16
15 -20 4 -20 -18 0 -39 20 -39 36 0 14 29 84 34 84 2 0 2 -10 -2 -22z m38 -58
c0 -5 -7 -10 -15 -10 -8 0 -15 5 -15 10 0 6 7 10 15 10 8 0 15 -4 15 -10z
m-1302 -46 c-10 -10 -28 6 -28 24 0 15 1 15 17 -1 9 -9 14 -19 11 -23z m1062
-38 c0 -3 -4 -8 -10 -11 -5 -3 -10 -1 -10 4 0 6 5 11 10 11 6 0 10 -2 10 -4z
m100 -23 c0 -5 -5 -15 -10 -23 -8 -12 -10 -11 -10 8 0 12 5 22 10 22 6 0 10
-3 10 -7z m787 -89 c-3 -3 -12 -4 -19 -1 -8 3 -5 6 6 6 11 1 17 -2 13 -5z
m283 -15 c0 -6 -4 -7 -10 -4 -5 3 -10 11 -10 16 0 6 5 7 10 4 6 -3 10 -11 10
-16z m-200 -24 c0 -8 -2 -15 -4 -15 -2 0 -6 7 -10 15 -3 8 -1 15 4 15 6 0 10
-7 10 -15z m63 -82 l5 -28 -18 22 c-9 12 -21 19 -25 15 -5 -4 -5 -1 -1 6 12
21 33 13 39 -15z m46 -5 c11 -10 13 -10 7 0 -14 24 12 12 53 -25 35 -32 42
-45 45 -81 2 -23 0 -44 -3 -47 -10 -6 -94 95 -87 103 4 3 12 0 17 -8 8 -11 9
-9 4 9 -6 18 -4 22 6 15 12 -7 12 -5 0 9 -13 17 -36 14 -26 -4 7 -11 -16 -12
-30 -1 -11 8 -16 42 -6 42 4 0 13 -6 20 -12z m-2436 -28 c3 -11 1 -23 -4 -26
-5 -3 -9 6 -9 20 0 31 6 34 13 6z m586 -19 c11 -7 10 -11 -5 -19 -16 -9 -16
-12 -4 -27 11 -13 11 -18 1 -24 -10 -7 -10 -13 -2 -30 7 -11 17 -21 23 -21 6
0 3 9 -7 20 -10 11 -14 20 -9 20 5 0 34 -26 66 -58 31 -31 69 -66 84 -77 15
-11 35 -27 43 -36 29 -29 106 -76 118 -72 6 2 14 -1 18 -6 10 -17 147 -13 183
5 18 8 32 20 32 25 0 5 5 9 11 9 14 0 129 80 129 90 0 4 12 12 26 19 l27 12
-7 -53 c-4 -29 -12 -58 -17 -64 -6 -7 -6 -15 -1 -18 5 -3 9 -23 9 -45 0 -32
-4 -40 -21 -45 -71 -19 -595 11 -581 33 2 4 -10 5 -27 3 -25 -4 -30 -2 -25 11
4 11 2 14 -7 11 -8 -3 -15 4 -18 18 -3 13 -9 32 -13 42 -6 14 -5 17 3 12 7 -4
12 -5 12 -1 0 3 -11 10 -25 15 -18 7 -25 17 -25 35 0 15 -5 35 -10 46 -6 10
-12 39 -13 63 -1 24 -5 42 -9 39 -5 -2 -8 5 -8 17 0 12 -5 30 -10 41 -9 17 -7
19 17 19 15 0 34 -4 42 -9z m-557 -283 c9 -5 8 -10 0 -21 -7 -8 -9 -23 -6 -33
5 -13 4 -16 -4 -9 -11 11 -16 56 -11 125 l3 45 3 -50 c3 -27 9 -53 15 -57z
m2547 15 c14 -28 17 -41 8 -37 -12 4 -37 58 -37 79 0 12 5 5 29 -42z m-1804
-143 c3 -5 -1 -10 -10 -10 -9 0 -13 5 -10 10 3 6 8 10 10 10 2 0 7 -4 10 -10z
m318 -27 c-7 -2 -19 -2 -25 0 -7 3 -2 5 12 5 14 0 19 -2 13 -5z m-73 -32 l145
-6 -105 -7 c-124 -9 -295 3 -313 22 -10 10 1 11 58 5 39 -4 135 -10 215 -14z
m177 -7 c-3 -3 -12 -4 -19 -1 -8 3 -5 6 6 6 11 1 17 -2 13 -5z m-350 -40 c-3
-3 -12 -4 -19 -1 -8 3 -5 6 6 6 11 1 17 -2 13 -5z m455 -11 c-10 -4 -10 -9 3
-23 10 -11 14 -24 9 -32 -4 -7 -9 -19 -10 -28 -3 -23 -45 -191 -58 -230 -9
-26 -19 -37 -44 -45 -40 -12 -41 -25 -2 -25 27 0 29 -2 20 -22 -5 -13 -11 -36
-15 -51 -8 -38 -26 -42 -80 -21 -39 16 -47 25 -57 59 -7 22 -22 58 -34 80 -71
132 -93 168 -131 212 -24 26 -43 56 -43 65 0 10 -6 15 -13 13 -6 -3 -18 4 -24
14 -11 18 -10 19 15 17 15 -2 86 -4 157 -5 72 -1 125 -5 119 -9 -7 -4 -14 -16
-16 -27 -5 -18 -6 -18 -16 5 -6 14 -11 18 -11 10 -1 -9 4 -21 10 -27 13 -13
-3 -49 -35 -76 -11 -10 -15 -16 -8 -12 6 3 15 -1 18 -9 5 -13 9 -12 24 7 10
12 25 39 34 60 10 25 20 36 27 31 8 -5 10 -2 7 8 -8 20 2 34 30 42 17 6 22 3
23 -11 1 -14 2 -15 6 -2 4 18 46 35 83 36 14 0 19 -2 12 -4z m-542 -67 c14
-23 59 -77 147 -178 47 -53 123 -154 123 -163 0 -12 -89 41 -90 54 0 19 -58
122 -81 143 -10 10 -22 26 -28 35 -8 15 -12 16 -23 4 -10 -11 -10 -12 0 -7 8
5 18 -4 27 -26 18 -38 35 -66 53 -86 6 -7 12 -17 12 -22 0 -5 3 -15 6 -24 4
-10 -9 -7 -45 12 -28 15 -51 33 -51 41 0 34 -40 134 -72 182 -18 28 -21 69 -3
63 6 -3 17 -15 25 -28z m570 -40 c0 -8 -4 -18 -10 -21 -5 -3 -10 3 -10 14 0
12 5 21 10 21 6 0 10 -6 10 -14z m45 -7 c8 -12 105 -59 129 -63 9 -1 27 -12
40 -23 14 -12 43 -28 66 -36 40 -13 40 -14 20 -32 -11 -10 -34 -40 -51 -66
-17 -27 -37 -49 -44 -49 -21 0 -104 -79 -130 -125 -25 -42 -26 -43 -64 -34
-87 20 -91 23 -84 76 9 74 19 90 65 112 24 11 35 20 25 20 -10 1 -27 -4 -38
-9 -23 -13 -23 -8 -7 57 25 103 50 183 58 183 5 0 12 -5 15 -11z m493 -41 c23
-19 12 -34 -48 -62 -33 -16 -60 -33 -60 -38 0 -5 -7 -11 -16 -15 -23 -9 -115
-104 -109 -113 3 -4 -8 -7 -25 -6 -23 2 -27 -1 -18 -11 16 -19 -16 -53 -33
-36 -9 9 0 28 37 77 27 36 55 65 63 66 8 0 12 3 9 6 -3 3 28 39 71 79 77 75
92 81 129 53z m-1931 -24 c-3 -3 -12 -4 -19 -1 -8 3 -5 6 6 6 11 1 17 -2 13
-5z m50 0 c-3 -3 -12 -4 -19 -1 -8 3 -5 6 6 6 11 1 17 -2 13 -5z m295 -82 c4
-2 8 -12 8 -22 0 -13 11 -19 41 -24 75 -12 118 -62 105 -123 -8 -35 -32 -51
-88 -58 -26 -3 -36 -2 -25 3 25 11 23 22 -5 36 -13 6 -29 24 -37 40 -16 35
-41 150 -41 191 l0 30 17 -35 c10 -19 21 -36 25 -38z m1893 47 c25 -12 42 -25
39 -30 -3 -5 1 -7 8 -4 21 7 70 -39 62 -58 -3 -9 -9 -15 -14 -12 -4 2 -5 -8
-2 -23 l6 -27 8 33 c5 17 12 32 16 32 6 0 52 -73 52 -84 0 -2 -17 -4 -37 -3
-22 0 -50 -7 -65 -17 -19 -12 -37 -16 -54 -12 -18 5 -30 2 -38 -8 -14 -20
-236 -36 -236 -17 0 6 -7 11 -16 11 -16 0 -61 49 -57 62 2 4 -7 4 -20 -1 -12
-5 -23 -18 -25 -32 -5 -28 -21 -51 -32 -44 -5 3 -15 -2 -24 -10 -8 -8 -17 -11
-20 -6 -6 10 40 51 56 51 6 0 8 6 5 14 -7 17 24 39 67 50 17 4 43 17 58 28 28
20 30 20 51 2 l22 -19 -18 22 c-15 17 -16 23 -5 30 26 16 113 63 131 69 9 3
17 10 17 15 0 14 16 11 65 -12z m-1405 -41 c0 -4 -7 -5 -15 -2 -8 4 -15 18
-15 33 l1 26 14 -25 c8 -14 14 -28 15 -32z m527 30 c-3 -8 -6 -5 -6 6 -1 11 2
17 5 13 3 -3 4 -12 1 -19z m-17 -77 c0 -6 -4 -12 -8 -15 -5 -3 -9 1 -9 9 0 8
4 15 9 15 4 0 8 -4 8 -9z m1320 -71 c18 -54 4 -120 -28 -131 -23 -9 -23 -8
-15 54 4 34 8 74 8 90 0 40 20 33 35 -13z m-1349 -36 c-9 -28 -9 -29 -10 -3
-1 14 2 29 6 32 11 12 13 2 4 -29z m265 -29 c-3 -8 -1 -15 4 -15 5 0 23 -21
41 -47 45 -67 100 -123 121 -123 20 0 108 102 127 148 24 56 51 38 101 -70 42
-90 51 -185 22 -248 -11 -25 -33 -56 -47 -70 -23 -21 -26 -22 -17 -5 5 11 16
34 23 50 7 17 15 34 18 39 2 5 -3 7 -12 3 -14 -5 -17 0 -17 26 0 22 3 28 9 18
6 -9 10 -4 13 18 5 33 -9 52 -22 31 -5 -8 -9 -4 -13 11 -7 24 3 43 10 22 7
-19 23 -16 23 5 0 32 -59 172 -72 172 -4 0 -11 -12 -14 -27 -9 -37 -79 -134
-89 -125 -5 4 -6 0 -3 -9 4 -9 -4 -33 -16 -55 -20 -36 -34 -46 -37 -26 -1 4
-15 12 -30 19 -16 7 -29 18 -29 25 0 10 2 10 8 1 4 -7 13 -9 21 -4 13 9 5 25
-69 130 -62 86 -61 86 -104 8 -44 -78 -38 -184 17 -292 31 -62 -5 -26 -50 49
-31 52 -36 70 -37 126 -1 54 4 73 28 115 25 45 83 115 94 115 2 0 2 -7 -2 -15z
m-286 -45 c-5 -22 -8 -27 -9 -13 -1 21 9 56 14 51 2 -2 0 -19 -5 -38z m485 10
c3 -5 -1 -10 -10 -10 -9 0 -13 5 -10 10 3 6 8 10 10 10 2 0 7 -4 10 -10z
m-201 -35 c3 -8 1 -15 -4 -15 -6 0 -10 7 -10 15 0 8 2 15 4 15 2 0 6 -7 10
-15z m161 5 c-3 -5 -11 -10 -16 -10 -6 0 -7 5 -4 10 3 6 11 10 16 10 6 0 7 -4
4 -10z m165 -30 c0 -5 -2 -10 -4 -10 -3 0 -8 5 -11 10 -3 6 -1 10 4 10 6 0 11
-4 11 -10z m7 -34 c-3 -8 -2 -16 2 -18 12 -5 24 -48 13 -48 -5 0 -15 14 -22
31 -8 19 -16 26 -20 19 -6 -9 -9 -9 -15 0 -8 13 11 30 34 30 7 0 11 -6 8 -14z
m-44 -45 c3 -12 -6 -28 -23 -45 -31 -29 -50 -35 -29 -10 8 9 14 22 14 28 2 18
17 46 25 46 4 0 10 -8 13 -19z m-319 -16 c-7 -16 -24 -21 -24 -6 0 8 7 13 27
20 1 1 0 -6 -3 -14z m-17 -67 c-3 -7 -5 -2 -5 12 0 14 2 19 5 13 2 -7 2 -19 0
-25z m263 -29 c-7 -11 -14 -18 -17 -15 -3 3 0 12 7 21 18 21 23 19 10 -6z
m-70 -93 c0 -9 8 -12 25 -8 14 2 25 8 25 13 0 15 28 10 81 -12 49 -21 58 -32
38 -44 -5 -4 -8 -12 -6 -18 2 -7 -2 -20 -11 -29 -8 -10 -12 -24 -8 -33 7 -18
26 -11 64 25 17 17 22 18 22 5 0 -8 11 -33 25 -55 14 -22 25 -43 25 -46 0 -4
16 -29 35 -55 19 -27 35 -51 35 -54 0 -3 11 -23 25 -45 28 -44 32 -65 11 -57
-9 4 -17 -8 -25 -34 -12 -41 -32 -49 -69 -30 -40 22 -194 71 -287 91 -55 11
-125 27 -156 35 -31 8 -109 20 -174 26 -118 12 -118 12 -137 -10 -10 -13 -18
-31 -18 -40 0 -9 -4 -21 -9 -26 -5 -6 -18 -46 -29 -90 -11 -44 -37 -143 -57
-220 -37 -142 -50 -192 -64 -255 -25 -113 -71 -219 -71 -165 0 8 -4 15 -10 15
-14 0 -13 -16 3 -48 11 -21 11 -35 2 -66 l-11 -38 -11 38 c-6 22 -17 66 -23
99 -6 33 -16 78 -22 100 -5 22 -13 60 -18 85 -5 25 -18 90 -30 145 -12 55 -25
116 -29 135 -4 19 -13 51 -19 70 -6 19 -16 55 -23 80 -6 25 -18 64 -25 88 -8
23 -14 49 -14 57 0 13 -60 46 -78 44 -4 -1 -25 0 -47 1 l-40 2 30 10 c17 5 44
16 60 23 17 7 41 15 55 17 14 1 28 7 31 11 3 4 18 9 32 11 15 1 30 6 34 9 10
10 23 8 23 -3 0 -9 22 -62 56 -135 l14 -30 -5 30 c-5 28 -4 28 4 5 5 -14 14
-46 21 -72 7 -26 16 -45 21 -42 5 3 2 22 -6 42 -7 20 -21 68 -30 106 -9 37
-19 75 -22 84 -5 11 -3 13 6 7 10 -6 11 -3 2 13 -9 18 -8 23 10 32 11 7 27 9
35 6 8 -3 14 -1 14 3 0 8 52 31 71 31 4 0 10 -10 12 -22 4 -21 4 -21 6 3 1 31
23 42 130 69 42 10 86 22 99 26 13 4 22 2 22 -5 0 -6 5 -11 11 -11 6 0 9 6 6
14 -5 14 30 28 105 41 42 8 68 -2 47 -17 -11 -7 -9 -8 4 -4 12 4 30 -3 49 -19
31 -26 54 -34 42 -14 -4 7 -7 25 -6 40 0 16 -4 31 -9 34 -16 11 -9 23 16 28
17 3 30 -1 38 -12 18 -25 38 -36 31 -17 -3 9 -10 16 -15 16 -5 0 -9 5 -9 11 0
6 9 9 20 6 11 -3 23 -1 26 4 8 14 24 11 24 -5z m-800 -236 c0 -5 -4 -10 -10
-10 -5 0 -10 5 -10 10 0 6 5 10 10 10 6 0 10 -4 10 -10z m19 -95 c0 -11 -6 -2
-14 20 -8 22 -14 45 -14 50 1 18 28 -49 28 -70z m1223 -157 c-33 -9 -35 -7
-20 26 l12 27 17 -23 c18 -23 17 -23 -9 -30z m318 -458 c-8 -5 -24 -10 -35
-11 -17 -1 -16 -2 5 -9 17 -5 19 -8 8 -9 -21 -1 -24 -31 -4 -31 16 0 15 -25
-1 -41 -7 -7 -16 6 -30 43 l-20 53 26 6 c14 4 35 7 46 8 16 1 17 -1 5 -9z
m-2307 -85 c-3 -9 -8 -14 -10 -11 -3 3 -2 9 2 15 9 16 15 13 8 -4z m2314 -31
c-3 -3 -12 -4 -19 -1 -8 3 -5 6 6 6 11 1 17 -2 13 -5z m454 -117 c-10 -9 -11
-8 -5 6 3 10 9 15 12 12 3 -3 0 -11 -7 -18z m2 -58 c-8 -8 -13 -7 -18 2 -5 8
-4 10 3 5 7 -4 12 -2 12 5 0 7 3 9 7 6 4 -4 2 -12 -4 -18z m-21 -48 c10 -22
20 -52 23 -68 3 -15 2 -21 -1 -13 -4 8 -17 39 -30 68 -13 28 -20 52 -16 52 4
0 15 -18 24 -39z m-4059 -126 c-3 -9 -8 -14 -10 -11 -3 3 -2 9 2 15 9 16 15
13 8 -4z m665 -243 c9 9 12 8 12 -5 0 -12 8 -17 30 -17 27 0 67 -16 80 -31 3
-4 15 -9 28 -13 12 -4 22 -11 22 -15 0 -4 18 -26 40 -50 22 -23 40 -47 40 -52
0 -5 6 -9 14 -9 12 0 13 7 5 32 -5 18 -9 46 -9 63 l1 30 16 -30 c9 -16 20 -33
25 -36 20 -13 49 -124 48 -183 -1 -33 -2 -74 -1 -89 0 -15 -4 -25 -9 -22 -6 4
-10 15 -10 26 0 26 -29 81 -39 75 -14 -9 -1 -374 15 -404 8 -15 14 -51 14 -79
0 -29 3 -53 8 -53 9 0 8 -91 -2 -145 -4 -22 -16 -69 -28 -105 -11 -36 -28 -96
-38 -135 -10 -38 -29 -110 -43 -160 -29 -102 -43 -184 -31 -172 8 8 13 23 51
159 11 37 22 71 26 74 4 4 7 19 7 34 0 14 7 35 15 46 8 10 15 28 15 39 0 12 9
38 20 60 11 22 20 48 20 59 0 16 3 17 12 8 9 -9 9 -15 0 -24 -7 -7 -12 -27
-12 -45 0 -18 -9 -52 -19 -76 -29 -64 -41 -106 -35 -122 4 -8 1 -15 -6 -15 -6
0 -10 -6 -7 -12 2 -7 -2 -25 -10 -41 -7 -15 -13 -33 -12 -40 4 -30 -2 -58 -11
-52 -5 3 -10 -4 -11 -17 0 -13 -3 -34 -5 -48 -2 -14 -6 -56 -8 -95 -3 -55 0
-72 13 -82 13 -11 11 -11 -13 -3 -35 13 -56 -1 -37 -24 7 -9 8 -17 2 -20 -5
-3 -8 -23 -6 -44 2 -22 -5 -55 -18 -82 -11 -25 -25 -58 -32 -74 l-13 -29 -7
32 -7 33 -21 -45 c-33 -66 -96 -136 -146 -159 -52 -23 -106 -19 -223 18 -85
26 -105 29 -110 14 -2 -7 -21 -7 -59 0 -60 11 -205 3 -409 -25 -63 -8 -132
-15 -152 -15 -21 0 -38 -4 -38 -10 0 -5 -10 -10 -22 -11 -13 -1 -3 -5 21 -10
53 -10 72 -25 33 -26 -81 -2 -93 -4 -88 -12 9 -13 -96 -23 -126 -12 -20 7 -29
6 -37 -3 -6 -7 -8 -16 -4 -19 3 -4 1 -7 -6 -7 -15 0 -5 41 13 52 6 4 33 11 60
14 l50 7 -45 13 c-24 7 -61 16 -81 19 -27 4 -38 11 -38 24 0 9 -7 26 -15 37
-13 18 -14 17 -15 -18 0 -20 -3 -39 -7 -41 -5 -3 -37 -1 -73 3 -36 4 -54 8
-41 9 17 1 21 4 13 14 -7 8 -4 25 11 56 20 42 20 46 5 103 l-16 58 55 43 c30
23 58 41 63 40 6 -2 12 8 16 22 3 14 10 25 15 25 5 0 9 10 9 23 0 18 -2 19
-10 7 -8 -13 -10 -13 -10 1 0 9 13 26 29 38 18 14 27 29 24 39 -11 43 67 90
167 99 30 3 63 9 73 15 10 5 26 6 37 3 10 -3 21 -1 25 4 4 7 -1 8 -12 4 -32
-12 1 19 77 72 102 71 130 95 130 111 0 8 4 14 8 14 5 0 17 7 28 16 10 8 13
13 7 9 -7 -3 -13 -1 -13 4 0 10 5 12 37 15 12 1 37 27 82 85 18 24 22 36 13
39 -8 2 -4 11 13 24 14 11 25 27 25 36 0 14 2 15 10 2 10 -17 23 -8 25 18 2
25 16 65 28 80 8 10 12 10 18 1 9 -15 89 105 89 133 0 11 5 16 10 13 6 -3 11
0 12 7 3 28 5 35 36 97 17 35 34 84 37 108 3 25 10 53 15 64 6 10 10 22 9 26
-4 23 2 54 9 49 5 -3 9 8 10 25 0 17 8 42 17 56 10 14 19 53 21 87 2 33 8 70
13 81 19 43 32 128 21 135 -14 9 -3 76 15 94 7 7 15 21 18 32 3 14 5 12 6 -8
0 -16 -3 -28 -7 -28 -4 0 -8 -8 -8 -17 0 -10 -4 -29 -8 -42 -6 -16 -5 -21 3
-17 6 4 11 15 11 25 0 24 62 109 77 104 6 -2 20 7 30 20 13 18 22 23 34 16 10
-5 20 -4 27 3z m3405 -211 c-8 -11 -12 10 -17 74 l-5 70 13 -70 c7 -38 11 -72
9 -74z m-741 -55 c5 -9 13 -16 19 -16 12 0 25 -10 95 -76 30 -27 54 -55 54
-60 0 -5 12 -21 28 -34 29 -26 68 -100 98 -187 10 -29 22 -53 26 -53 5 0 8 -5
8 -10 0 -9 42 -99 157 -337 20 -43 40 -80 44 -83 4 -3 11 -18 15 -34 4 -17 13
-41 20 -55 8 -14 14 -36 14 -48 0 -13 5 -23 10 -23 6 0 10 -6 10 -13 0 -25 76
-124 162 -211 48 -48 86 -92 83 -96 -3 -4 1 -10 9 -13 9 -4 12 -15 8 -32 -5
-26 11 -67 36 -93 6 -7 12 -20 12 -28 0 -9 7 -23 16 -31 12 -13 15 -31 12 -82
-2 -38 -9 -66 -16 -69 -7 -2 -12 -10 -12 -18 0 -8 -3 -14 -8 -14 -4 0 -16 -20
-27 -45 -17 -37 -21 -41 -25 -23 -8 31 -30 35 -30 5 0 -16 -7 -28 -19 -32 -11
-3 -22 -12 -25 -20 -3 -8 -13 -15 -23 -15 -10 0 -27 -7 -37 -15 -11 -8 -28
-15 -37 -15 -10 0 -19 -5 -21 -10 -2 -7 -97 -15 -248 -21 -135 -5 -258 -14
-274 -20 -35 -11 -96 -2 -103 16 -2 7 -16 16 -29 19 -27 7 -83 63 -84 84 0 6
-4 12 -8 12 -5 0 -23 32 -41 70 -24 52 -37 70 -52 70 -15 0 -18 5 -15 23 3 12
8 46 11 76 5 47 12 60 48 95 41 40 42 42 40 104 -1 35 -7 70 -13 77 -6 8 -13
33 -15 57 -2 24 -6 53 -9 66 -3 12 -1 22 5 22 5 0 9 -10 9 -23 0 -13 4 -27 9
-32 4 -6 16 -35 26 -65 10 -30 24 -71 32 -90 13 -34 13 -34 9 -5 -3 17 -14 66
-26 110 -12 44 -24 94 -27 110 -6 38 -41 155 -53 176 -5 9 -12 33 -15 53 -4
20 -11 36 -16 36 -5 0 -8 3 -7 8 4 17 -58 132 -72 133 -10 0 -11 2 -3 6 10 3
10 9 0 24 -13 21 -37 26 -37 7 -1 -7 -12 14 -26 47 -13 33 -29 68 -34 78 -6 9
-10 91 -9 185 1 195 16 272 61 312 15 13 28 31 28 38 0 11 8 13 29 9 21 -4 36
0 52 13 12 11 30 20 41 20 10 0 18 4 18 8 0 16 132 -5 142 -22z m-3408 -249
c-8 -22 -34 -30 -34 -11 0 8 5 12 10 9 6 -3 13 1 16 10 4 9 8 14 10 12 3 -2 2
-11 -2 -20z m-11 -197 c-3 -11 -9 -17 -15 -14 -5 3 -4 12 3 20 16 19 18 18 12
-6z m37 -15 c0 -8 -4 -15 -10 -15 -5 0 -10 7 -10 15 0 8 5 15 10 15 6 0 10 -7
10 -15z m71 2 c18 3 26 0 26 -9 0 -17 -55 -21 -74 -5 -20 15 -16 29 5 18 9 -5
29 -7 43 -4z m179 -296 c0 -6 -4 -13 -10 -16 -5 -3 -10 1 -10 9 0 9 5 16 10
16 6 0 10 -4 10 -9z m836 -58 c-11 -11 -17 4 -9 23 7 18 8 18 11 1 2 -10 1
-21 -2 -24z m3894 -623 c0 -5 -4 -10 -10 -10 -5 0 -10 5 -10 10 0 6 5 10 10
10 6 0 10 -4 10 -10z m-377 -154 c31 -21 57 -44 57 -50 0 -6 -7 -24 -15 -40
-9 -16 -21 -58 -28 -93 -6 -34 -16 -63 -22 -63 -23 0 -43 27 -49 65 -3 22 -12
81 -20 130 -9 50 -15 99 -15 110 l0 20 17 -20 c10 -11 43 -37 75 -59z m-1436
2 c-3 -7 -5 -2 -5 12 0 14 2 19 5 13 2 -7 2 -19 0 -25z m2663 12 c12 -7 11 -9
-5 -9 -11 0 -27 -1 -35 -2 -8 -1 -26 -1 -40 1 -24 2 -24 3 5 10 43 11 58 11
75 0z m-7413 -106 c2 -7 -8 -9 -27 -6 -16 2 -27 8 -24 14 8 12 46 6 51 -8z
m7419 -166 c10 -33 13 -68 6 -68 -17 1 -102 62 -102 73 0 5 31 12 72 16 9 0
20 -9 24 -21z m-1222 -88 c-6 -5 -24 21 -24 34 0 6 6 1 14 -10 8 -10 12 -21
10 -24z m-469 21 c3 -6 -3 -10 -12 -9 -10 0 -45 -5 -78 -11 -52 -9 -202 -5
-191 6 2 2 43 6 92 9 49 3 91 7 93 10 9 8 90 4 96 -5z m-527 -43 c-5 -14 -88
-23 -88 -9 0 5 17 12 38 14 20 2 41 4 45 5 5 1 7 -3 5 -10z m-15 -35 c-7 -2
-21 -2 -30 0 -10 3 -4 5 12 5 17 0 24 -2 18 -5z m-3676 -109 c-3 -3 -12 -4
-19 -1 -8 3 -5 6 6 6 11 1 17 -2 13 -5z m-332 -194 c-4 -7 2 -9 18 -5 26 7
161 -10 181 -22 5 -4 21 -8 35 -9 13 -2 29 -8 34 -13 6 -6 22 -11 37 -11 24 0
93 -21 128 -39 9 -5 36 -15 60 -22 44 -13 68 -31 32 -24 -11 2 -25 7 -30 10
-6 3 -10 2 -10 -3 0 -13 47 -24 70 -17 11 3 32 -1 47 -10 22 -12 23 -14 6 -10
-13 4 -23 2 -23 -3 0 -14 43 -23 51 -10 9 15 39 2 39 -17 0 -8 5 -15 11 -15 5
0 7 5 3 11 -8 13 35 3 50 -12 6 -5 18 -9 28 -9 10 0 36 -6 58 -12 32 -10 40
-18 40 -36 0 -13 4 -21 10 -17 5 3 6 13 3 22 -5 13 -3 15 13 9 10 -5 33 -14
49 -20 17 -6 32 -14 35 -17 3 -4 20 -10 37 -14 18 -3 35 -11 38 -16 9 -14 -19
-11 -54 7 -31 15 -61 13 -61 -4 0 -5 13 -7 30 -4 20 3 32 -1 35 -11 5 -12 14
-13 47 -6 35 8 43 7 58 -11 18 -20 36 -28 25 -10 -3 6 1 10 9 10 8 0 17 -4 21
-9 3 -5 19 -12 35 -16 25 -5 28 -10 20 -24 -5 -10 -6 -21 -3 -25 3 -3 1 -6 -5
-6 -7 0 -12 5 -12 10 0 6 -4 10 -10 10 -5 0 -10 -7 -10 -15 0 -8 5 -15 12 -15
6 0 9 -3 5 -6 -8 -9 -86 37 -84 49 1 6 -7 12 -18 14 -16 3 -17 2 -5 -6 29 -20
-10 -12 -74 15 -91 39 -99 42 -123 49 -13 4 -23 11 -23 16 0 6 -9 8 -20 4 -11
-4 -29 0 -41 8 -20 15 -20 15 11 22 24 5 29 10 21 18 -8 8 -14 8 -19 2 -18
-26 -48 -33 -80 -19 -32 13 -42 38 -19 47 7 3 5 6 -6 6 -10 1 -21 -7 -25 -18
-5 -14 -12 -17 -29 -10 -13 5 -23 15 -23 24 0 8 -4 15 -10 15 -5 0 -7 -7 -4
-15 4 -8 2 -15 -4 -15 -5 0 -12 7 -16 15 -3 9 -18 15 -35 15 -16 0 -31 6 -35
15 -3 9 -18 15 -38 15 -23 0 -29 3 -21 11 7 7 7 17 -1 35 -11 24 -36 33 -36
13 0 -5 5 -7 10 -4 6 3 10 -2 10 -12 0 -15 -8 -19 -35 -20 -19 0 -33 3 -30 7
6 10 -24 22 -37 14 -5 -3 -15 1 -21 10 -11 16 -16 16 -50 1 -20 -8 -37 -11
-37 -6 0 5 6 11 13 14 9 3 7 10 -5 23 -11 11 -18 13 -18 6 0 -7 -10 -12 -22
-12 -19 0 -20 2 -8 10 13 9 13 10 0 11 -8 0 0 5 18 10 17 5 32 14 32 19 0 13
-27 13 -35 0 -4 -6 -11 -7 -17 -4 -6 4 -13 2 -17 -3 -3 -6 -17 -14 -31 -18
-23 -7 -23 -7 -7 9 21 21 21 24 3 42 -11 10 -15 11 -19 1 -4 -9 -7 -9 -18 1
-18 17 -34 15 -19 -3 7 -8 22 -15 34 -16 11 -1 1 -5 -23 -10 -52 -10 -56 -8
-41 20 9 17 8 22 -5 27 -9 4 -26 2 -38 -4 -20 -10 -19 -11 7 -5 20 4 27 3 22
-6 -4 -6 -20 -11 -36 -11 -22 0 -28 4 -24 15 4 10 0 15 -14 15 -11 0 -39 -7
-62 -15 -49 -17 -73 -19 -47 -4 19 11 100 35 125 38 7 0 10 -4 7 -9z m5248
-127 c-7 -2 -21 -2 -30 0 -10 3 -4 5 12 5 17 0 24 -2 18 -5z m-3958 -306 c-10
-5 -14 -16 -10 -28 4 -11 2 -19 -4 -19 -6 0 -11 12 -11 26 0 15 -8 33 -17 40
-15 11 -12 11 20 2 30 -9 35 -14 22 -21z m-39 -23 c-1 -26 -12 -30 -36 -14
-13 9 -13 12 2 24 10 7 15 16 11 20 -4 4 0 4 9 1 9 -4 15 -17 14 -31z m92 9
c-10 -2 -26 -2 -35 0 -10 3 -2 5 17 5 19 0 27 -2 18 -5z m85 -20 c-7 -2 -19
-2 -25 0 -7 3 -2 5 12 5 14 0 19 -2 13 -5z m-83 -13 c-20 -13 -50 -13 -50 0 0
6 15 10 33 10 24 0 28 -3 17 -10z m60 -10 c0 -5 -2 -10 -4 -10 -3 0 -8 5 -11
10 -3 6 -1 10 4 10 6 0 11 -4 11 -10z m153 1 c10 -4 18 -11 17 -16 -1 -5 3
-11 9 -13 6 -2 11 1 11 7 0 6 19 11 45 11 25 0 45 -5 45 -11 0 -5 -4 -7 -10
-4 -5 3 -10 -2 -11 -12 0 -15 -1 -16 -7 -2 -5 10 -16 14 -32 12 -76 -13 -132
-14 -125 -4 4 7 15 9 25 6 10 -3 21 -1 25 5 4 6 -4 10 -19 10 -13 0 -33 3 -43
6 -15 5 -16 4 -3 -6 12 -10 11 -11 -10 -6 -14 3 -32 6 -40 7 -23 2 41 17 75
17 17 0 38 -3 48 -7z m-176 -17 c-3 -3 -12 -4 -19 -1 -8 3 -5 6 6 6 11 1 17
-2 13 -5z m56 -11 c-7 -2 -19 -2 -25 0 -7 3 -2 5 12 5 14 0 19 -2 13 -5z m200
-20 c-7 -2 -19 -2 -25 0 -7 3 -2 5 12 5 14 0 19 -2 13 -5z m1144 -719 c-3 -3
-12 -4 -19 -1 -8 3 -5 6 6 6 11 1 17 -2 13 -5z m2703 -24 c0 -5 -5 -10 -11
-10 -5 0 -7 5 -4 10 3 6 8 10 11 10 2 0 4 -4 4 -10z m-4620 -540 c-19 -13 -30
-13 -30 0 0 6 10 10 23 10 18 0 19 -2 7 -10z"/>
<path d="M3968 8792 c-30 -12 -110 -95 -124 -129 -19 -43 -18 -55 6 -80 18
-20 18 -22 2 -25 -14 -3 -12 -7 9 -21 31 -21 152 -35 171 -20 25 19 118 24
144 7 22 -15 24 -15 30 -1 10 26 -3 34 -51 35 -25 1 -53 6 -63 11 -10 5 -46
12 -81 14 -70 5 -81 11 -52 26 12 7 18 17 15 26 -5 12 5 15 56 15 51 0 61 3
56 15 -3 8 -1 15 4 15 6 0 10 -4 10 -10 0 -16 37 -11 44 6 4 11 2 15 -6 11 -7
-2 -22 -1 -33 4 -13 5 2 7 39 5 33 -1 61 -7 63 -13 2 -5 -9 -8 -26 -5 -26 4
-29 1 -24 -16 3 -11 11 -23 18 -26 7 -2 16 -18 20 -35 7 -34 25 -42 25 -12 0
10 7 22 16 25 11 4 13 12 8 28 -4 13 -7 33 -6 45 3 35 -46 63 -110 64 -87 1
-133 12 -130 32 3 18 -3 20 -30 9z m97 -93 c-7 -10 -35 -1 -35 11 0 5 9 6 20
3 11 -3 17 -9 15 -14z m-98 2 c12 10 16 10 23 -1 5 -8 6 -18 3 -24 -4 -5 -10
-1 -14 10 -4 10 -8 13 -8 7 -1 -7 -7 -13 -15 -13 -8 0 -18 -5 -22 -12 -5 -8
-2 -9 9 -5 10 3 17 2 17 -4 0 -7 -12 -8 -30 -4 -19 4 -30 3 -30 -4 0 -6 -7
-11 -16 -11 -14 0 -14 2 0 15 8 8 20 15 27 15 7 0 9 3 6 7 -4 3 1 12 11 19 10
7 18 9 20 3 3 -6 10 -5 19 2z m83 -31 c18 -12 2 -12 -25 0 -13 6 -15 9 -5 9 8
0 22 -4 30 -9z m-152 -75 c-3 -3 -9 2 -12 12 -6 14 -5 15 5 6 7 -7 10 -15 7
-18z"/>
<path d="M4791 8773 c-16 -18 -8 -28 13 -16 8 4 12 13 8 20 -5 8 -11 7 -21 -4z"/>
<path d="M4400 8514 c-6 -14 -10 -63 -10 -109 0 -75 2 -86 21 -95 20 -11 19
-12 -13 -29 -24 -14 -40 -16 -63 -10 -53 16 -86 11 -92 -12 -4 -12 -11 -18
-20 -15 -8 3 -17 6 -19 6 -2 0 -4 7 -4 15 0 8 -4 15 -10 15 -15 0 -12 -15 10
-43 19 -24 134 -72 150 -62 14 9 18 -21 5 -38 -15 -21 -65 -23 -65 -2 0 21
-17 19 -24 -3 -4 -10 -21 -23 -39 -30 -17 -6 -49 -22 -71 -35 l-38 -24 38 -20
c22 -11 56 -30 77 -42 21 -11 47 -21 58 -21 15 0 19 -5 15 -15 -4 -11 3 -15
27 -16 18 -1 35 -1 40 0 12 2 8 -11 -9 -30 -20 -22 -3 -59 28 -59 21 0 21 0 2
15 -14 11 -16 17 -7 23 11 7 20 35 22 70 1 6 9 12 20 12 10 0 24 7 31 15 7 9
19 14 27 11 8 -3 12 -2 9 3 -3 5 1 11 9 15 8 3 15 12 15 21 0 22 17 18 46 -10
40 -40 61 -32 28 10 -14 19 -32 35 -39 35 -7 0 -39 16 -71 36 -36 21 -68 33
-81 31 -17 -3 -23 1 -23 13 0 13 11 19 45 22 25 3 63 17 84 31 36 24 38 28 40
84 1 48 -4 69 -29 118 -67 129 -103 165 -120 119z m0 -443 c0 -5 -11 -12 -25
-15 -31 -8 -33 -26 -2 -27 22 0 22 0 -2 -10 -59 -23 -97 -26 -131 -10 -18 9
-35 21 -37 26 -4 13 43 35 54 25 14 -13 73 -29 73 -21 0 5 -7 12 -16 15 -8 3
-12 10 -9 16 8 12 95 13 95 1z m75 -21 c3 -5 -3 -10 -14 -10 -11 0 -26 -7 -34
-15 -8 -8 -17 -11 -21 -8 -12 12 -6 21 22 31 36 14 40 14 47 2z"/>
<path d="M4139 8513 c-16 -4 -33 -42 -24 -51 3 -3 12 1 20 8 13 11 13 15 3 21
-9 6 -3 9 15 9 16 0 26 4 22 10 -6 10 -9 11 -36 3z"/>
<path d="M4745 8050 c-4 -13 1 -27 16 -42 l21 -23 -11 23 c-7 12 -9 32 -6 42
4 11 2 20 -4 20 -5 0 -12 -9 -16 -20z"/>
<path d="M4785 8050 c-3 -5 -2 -10 4 -10 5 0 13 5 16 10 3 6 2 10 -4 10 -5 0
-13 -4 -16 -10z"/>
<path d="M4084 8024 c3 -8 2 -12 -4 -9 -6 3 -10 2 -10 -4 0 -11 19 -25 26 -18
3 2 6 14 9 26 3 14 -1 21 -12 21 -10 0 -13 -6 -9 -16z"/>
<path d="M4535 7970 c4 -6 11 -8 16 -5 14 9 11 15 -7 15 -8 0 -12 -5 -9 -10z"/>
<path d="M4735 7960 c-3 -5 -2 -10 4 -10 5 0 13 5 16 10 3 6 2 10 -4 10 -5 0
-13 -4 -16 -10z"/>
<path d="M4423 7912 c0 -20 2 -30 5 -22 3 8 8 17 13 20 4 3 2 13 -5 22 -10 14
-12 11 -13 -20z"/>
<path d="M4500 7910 c-9 -6 -10 -10 -3 -10 6 0 15 5 18 10 8 12 4 12 -15 0z"/>
<path d="M4660 7910 c0 -5 5 -10 11 -10 5 0 7 5 4 10 -3 6 -8 10 -11 10 -2 0
-4 -4 -4 -10z"/>
<path d="M4615 7880 c-3 -5 1 -10 10 -10 9 0 13 5 10 10 -3 6 -8 10 -10 10 -2
0 -7 -4 -10 -10z"/>
<path d="M4420 7855 c0 -9 6 -12 15 -9 8 4 12 10 9 15 -8 14 -24 10 -24 -6z"/>
<path d="M4582 7850 c0 -14 2 -19 5 -12 2 6 2 18 0 25 -3 6 -5 1 -5 -13z"/>
<path d="M3927 7854 c7 -3 9 -13 6 -22 -4 -15 -3 -15 6 -2 15 22 14 30 -6 29
-10 0 -13 -3 -6 -5z"/>
<path d="M4003 7703 c0 -7 5 -12 11 -10 15 5 18 24 3 24 -8 0 -14 -6 -14 -14z"/>
<path d="M4026 7674 c-10 -25 1 -29 14 -5 6 12 7 21 1 21 -5 0 -12 -7 -15 -16z"/>
<path d="M4660 7655 c-10 -12 -10 -15 2 -15 8 0 15 7 15 15 0 8 -1 15 -2 15
-2 0 -8 -7 -15 -15z"/>
<path d="M3996 7643 c-6 -14 -5 -15 5 -6 7 7 10 15 7 18 -3 3 -9 -2 -12 -12z"/>
<path d="M4608 7605 c-39 -26 -56 -45 -39 -45 6 0 11 5 11 11 0 5 5 7 12 3 7
-5 8 -3 3 6 -6 10 -1 12 18 8 15 -3 24 -1 21 4 -3 5 0 15 6 23 16 20 12 18
-32 -10z"/>
<path d="M4125 7610 c-3 -5 -1 -10 4 -10 6 0 11 5 11 10 0 6 -2 10 -4 10 -3 0
-8 -4 -11 -10z"/>
<path d="M4652 7580 c0 -14 2 -19 5 -12 2 6 2 18 0 25 -3 6 -5 1 -5 -13z"/>
<path d="M4110 7548 c0 -4 14 -8 30 -8 17 0 30 2 30 4 0 2 -13 6 -30 8 -16 3
-30 1 -30 -4z"/>
<path d="M4215 7540 c3 -5 8 -10 11 -10 2 0 4 5 4 10 0 6 -5 10 -11 10 -5 0
-7 -4 -4 -10z"/>
<path d="M4516 7535 c4 -8 10 -15 15 -15 4 0 6 7 3 15 -4 8 -10 15 -15 15 -4
0 -6 -7 -3 -15z"/>
<path d="M4140 7512 c0 -5 7 -13 16 -16 10 -4 14 -1 12 6 -5 15 -28 23 -28 10z"/>
<path d="M4485 7510 c3 -5 10 -10 16 -10 5 0 9 5 9 10 0 6 -7 10 -16 10 -8 0
-12 -4 -9 -10z"/>
<path d="M4235 7500 c4 -6 11 -8 16 -5 14 9 11 15 -7 15 -8 0 -12 -5 -9 -10z"/>
<path d="M4200 7490 c0 -5 5 -10 11 -10 5 0 7 5 4 10 -3 6 -8 10 -11 10 -2 0
-4 -4 -4 -10z"/>
<path d="M4280 7282 c0 -12 19 -26 26 -19 2 2 -2 10 -11 17 -9 8 -15 8 -15 2z"/>
<path d="M4340 7215 c-9 -10 -9 -15 -1 -15 6 0 11 5 11 11 0 5 5 7 12 3 7 -4
8 -3 4 4 -9 15 -11 15 -26 -3z"/>
<path d="M4350 7185 c-11 -13 -10 -14 4 -9 9 3 16 10 16 15 0 13 -6 11 -20 -6z"/>
<path d="M4389 7198 c-5 -9 -4 -56 1 -52 5 6 8 54 3 54 -2 0 -4 -1 -4 -2z"/>
<path d="M4460 7149 c0 -5 5 -7 10 -4 6 3 10 8 10 11 0 2 -4 4 -10 4 -5 0 -10
-5 -10 -11z"/>
<path d="M4427 7133 c-4 -3 -7 -11 -7 -17 0 -6 5 -5 12 2 6 6 9 14 7 17 -3 3
-9 2 -12 -2z"/>
<path d="M4447 7124 c-4 -4 -7 -14 -7 -23 0 -11 3 -12 11 -4 6 6 10 16 7 23
-2 6 -7 8 -11 4z"/>
<path d="M4420 7056 c-6 -9 -10 -21 -8 -28 3 -8 9 -4 17 10 15 28 9 39 -9 18z"/>
<path d="M4499 6960 l-24 -19 26 -1 c18 0 28 6 32 20 7 25 -4 25 -34 0z"/>
<path d="M4835 7030 l-20 -9 20 0 c11 0 29 4 40 9 l20 9 -20 0 c-11 0 -29 -4
-40 -9z"/>
<path d="M4765 7010 c-19 -8 -19 -9 2 -9 12 -1 25 4 28 9 7 12 -2 12 -30 0z"/>
<path d="M5560 7039 c0 -5 5 -7 10 -4 6 3 10 8 10 11 0 2 -4 4 -10 4 -5 0 -10
-5 -10 -11z"/>
<path d="M5380 7019 c0 -5 5 -7 10 -4 6 3 10 8 10 11 0 2 -4 4 -10 4 -5 0 -10
-5 -10 -11z"/>
<path d="M5680 6971 c0 -5 5 -13 10 -16 6 -3 10 -2 10 4 0 5 -4 13 -10 16 -5
3 -10 2 -10 -4z"/>
<path d="M5250 6955 c0 -8 4 -15 10 -15 5 0 7 7 4 15 -4 8 -8 15 -10 15 -2 0
-4 -7 -4 -15z"/>
<path d="M5073 6673 c-15 -5 -17 -23 -4 -23 5 0 11 7 15 15 3 8 4 15 3 14 -1
0 -8 -3 -14 -6z"/>
<path d="M5156 6711 c-4 -7 -5 -15 -2 -18 9 -9 19 4 14 18 -4 11 -6 11 -12 0z"/>
<path d="M4788 6433 c7 -3 16 -2 19 1 4 3 -2 6 -13 5 -11 0 -14 -3 -6 -6z"/>
<path d="M4692 6410 c-7 -11 -8 -20 -2 -20 5 0 14 9 20 20 6 11 7 20 3 20 -5
0 -14 -9 -21 -20z"/>
<path d="M4635 6410 c3 -5 8 -10 11 -10 2 0 4 5 4 10 0 6 -5 10 -11 10 -5 0
-7 -4 -4 -10z"/>
<path d="M4566 6385 c4 -8 8 -15 10 -15 2 0 4 7 4 15 0 8 -4 15 -10 15 -5 0
-7 -7 -4 -15z"/>
<path d="M4508 6383 c-10 -2 -18 -9 -18 -14 0 -13 13 -11 36 6 19 14 14 17
-18 8z"/>
<path d="M4613 6383 c9 -2 25 -2 35 0 9 3 1 5 -18 5 -19 0 -27 -2 -17 -5z"/>
<path d="M4438 6353 c7 -3 16 -2 19 1 4 3 -2 6 -13 5 -11 0 -14 -3 -6 -6z"/>
<path d="M4420 6330 c0 -5 10 -10 23 -10 18 0 19 2 7 10 -19 13 -30 13 -30 0z"/>
<path d="M4370 6315 c0 -8 4 -15 10 -15 5 0 7 7 4 15 -4 8 -8 15 -10 15 -2 0
-4 -7 -4 -15z"/>
<path d="M4291 6284 c0 -11 3 -14 6 -6 3 7 2 16 -1 19 -3 4 -6 -2 -5 -13z"/>
<path d="M2570 4270 c0 -5 5 -10 11 -10 5 0 7 5 4 10 -3 6 -8 10 -11 10 -2 0
-4 -4 -4 -10z"/>
<path d="M2265 3669 c-4 -6 -5 -12 -2 -15 2 -3 7 2 10 11 7 17 1 20 -8 4z"/>
<path d="M1405 2750 c-3 -5 -1 -10 4 -10 6 0 11 5 11 10 0 6 -2 10 -4 10 -3 0
-8 -4 -11 -10z"/>
<path d="M1390 2717 c0 -14 39 -41 47 -33 3 3 -2 8 -11 12 -9 3 -14 10 -11 14
3 4 -2 10 -10 14 -8 3 -15 0 -15 -7z"/>
<path d="M1700 2640 c0 -5 7 -10 15 -10 8 0 15 5 15 10 0 6 -7 10 -15 10 -8 0
-15 -4 -15 -10z"/>
<path d="M2020 2210 c-24 -15 -7 -18 20 -3 14 7 18 13 10 13 -8 0 -22 -4 -30
-10z"/>
<path d="M2110 2200 c8 -5 20 -10 25 -10 6 0 3 5 -5 10 -8 5 -19 10 -25 10 -5
0 -3 -5 5 -10z"/>
<path d="M2132 2160 c7 -11 16 -20 21 -20 4 0 3 9 -3 20 -6 11 -15 20 -20 20
-6 0 -5 -9 2 -20z"/>
<path d="M2260 2116 c0 -2 7 -7 16 -10 8 -3 12 -2 9 4 -6 10 -25 14 -25 6z"/>
<path d="M2500 2050 c0 -5 4 -10 9 -10 6 0 13 5 16 10 3 6 -1 10 -9 10 -9 0
-16 -4 -16 -10z"/>
<path d="M2450 2040 c0 -5 7 -10 15 -10 8 0 15 5 15 10 0 6 -7 10 -15 10 -8 0
-15 -4 -15 -10z"/>
<path d="M2625 2010 c3 -5 8 -10 11 -10 2 0 4 5 4 10 0 6 -5 10 -11 10 -5 0
-7 -4 -4 -10z"/>
<path d="M2555 2000 c3 -5 8 -10 11 -10 2 0 4 5 4 10 0 6 -5 10 -11 10 -5 0
-7 -4 -4 -10z"/>
<path d="M2620 1979 c0 -5 5 -7 10 -4 6 3 10 8 10 11 0 2 -4 4 -10 4 -5 0 -10
-5 -10 -11z"/>
<path d="M2758 1923 c7 -3 16 -2 19 1 4 3 -2 6 -13 5 -11 0 -14 -3 -6 -6z"/>
<path d="M2875 1891 c-3 -7 -4 -16 -1 -18 5 -5 46 19 46 27 0 12 -40 5 -45 -9z"/>
<path d="M3277 8431 c-4 -17 -3 -21 5 -13 5 5 8 16 6 23 -3 8 -7 3 -11 -10z"/>
<path d="M3321 7428 c0 -9 -4 -25 -7 -35 -5 -14 -4 -15 5 -7 7 7 11 22 8 35
-2 13 -5 16 -6 7z"/>
<path d="M1349 3472 c-9 -11 -25 -25 -35 -33 -28 -20 -124 -131 -124 -143 0
-13 153 143 169 172 14 27 11 28 -10 4z"/>
<path d="M8110 3100 c0 -5 5 -10 11 -10 5 0 7 5 4 10 -3 6 -8 10 -11 10 -2 0
-4 -4 -4 -10z"/>
<path d="M7471 2987 c-27 -13 -40 -37 -21 -37 7 0 25 11 42 25 31 26 20 33
-21 12z"/>
<path d="M238 2953 c-37 -9 -16 -20 34 -17 61 3 81 25 21 23 -21 -1 -46 -3
-55 -6z"/>
<path d="M333 1835 c0 -33 2 -45 4 -27 2 18 2 45 0 60 -2 15 -4 0 -4 -33z"/>
<path d="M352 1560 c0 -14 2 -19 5 -12 2 6 2 18 0 25 -3 6 -5 1 -5 -13z"/>
</g>
</svg>
